<svg xmlns="http://www.w3.org/2000/svg" width="210" height="210" viewBox="0 0 210 210">
  <defs>
    <style>
      .cls-1 {
        font-size: 26.1px;
        font-family: MyriadPro-Regular, Myriad Pro;
      }

      .cls-1, .cls-2, .cls-3, .cls-4, .cls-5, .cls-6 {
        fill: #fff;
      }

      .cls-2 {
        font-size: 26.1px;
      }

      .cls-2, .cls-3, .cls-4, .cls-5 {
        font-family: HamurzFreeVersion, Hamurz Free Version;
      }

      .cls-3 {
        font-size: 30.7px;
      }

      .cls-4 {
        font-size: 26.1px;
      }

      .cls-5 {
        font-size: 30.7px;
      }
    </style>
  </defs>
  <title>Logo top right</title>
  <g id="Layer_1" data-name="Layer 1">
    <g>
      <text class="cls-1" transform="translate(130.6 81)"> </text>
      <text class="cls-1" transform="translate(51.8 146.1)"> </text>
      <text class="cls-2" transform="matrix(0.7, -0.72, 0.72, 0.7, 43.61, 50.01)"> </text>
      <text class="cls-2" transform="translate(47 46.5) rotate(-42.3)"> </text>
      <text class="cls-3" transform="matrix(0.81, -0.59, 0.59, 0.81, 50.38, 43.15)">H</text>
      <text class="cls-3" transform="matrix(0.88, -0.47, 0.47, 0.88, 59.84, 36.12)">a</text>
      <text class="cls-3" transform="translate(70.2 30.6) rotate(-19.8)">c</text>
      <text class="cls-3" transform="translate(81.3 26.5) rotate(-11.3)">k</text>
      <text class="cls-3" transform="translate(93.5 24) rotate(-2.7)">G</text>
      <text class="cls-3" transform="translate(104.7 23.5) rotate(5)">t</text>
      <text class="cls-3" transform="translate(115.8 24.6) rotate(11)"> </text>
      <text class="cls-3" transform="translate(121.3 25.4) rotate(17.2)">2</text>
      <text class="cls-3" transform="translate(132.8 28.9) rotate(25.9)">0</text>
      <text class="cls-3" transform="matrix(0.84, 0.55, -0.55, 0.84, 144.09, 34.52)">1</text>
      <text class="cls-3" transform="translate(150.9 38.8) rotate(40.1)">8</text>
      <text class="cls-4" transform="matrix(0.52, 0.85, -0.85, 0.52, 15.27, 156.34)"> </text>
      <text class="cls-5" transform="translate(18.4 161.4) rotate(54.7)"> </text>
      <text class="cls-5" transform="translate(22.5 167.1) rotate(50.8)"> </text>
      <text class="cls-5" transform="matrix(0.71, 0.71, -0.71, 0.71, 27.15, 172.97)">d</text>
      <text class="cls-5" transform="matrix(0.8, 0.6, -0.6, 0.8, 36.85, 182.51)">a</text>
      <text class="cls-5" transform="translate(48 190.8) rotate(29.5)">r</text>
      <text class="cls-5" transform="matrix(0.93, 0.38, -0.38, 0.93, 59.86, 197.43)">e</text>
      <text class="cls-5" transform="matrix(0.96, 0.28, -0.28, 0.96, 72.01, 202.13)"> </text>
      <text class="cls-5" transform="matrix(0.98, 0.18, -0.18, 0.98, 79.1, 204.28)">t</text>
      <text class="cls-5" transform="translate(91.8 206.6) rotate(3.2)">o</text>
      <text class="cls-5" transform="matrix(1, -0.05, 0.05, 1, 105.29, 207.12)"> </text>
      <text class="cls-5" transform="translate(112.9 206.9) rotate(-9.1)">v</text>
      <text class="cls-5" transform="translate(127.5 204.4) rotate(-16.8)">e</text>
      <text class="cls-5" transform="translate(140 200.5) rotate(-24.3)">n</text>
      <text class="cls-5" transform="matrix(0.85, -0.53, 0.53, 0.85, 152.47, 194.79)">t</text>
      <text class="cls-5" transform="matrix(0.77, -0.64, 0.64, 0.77, 163.8, 187.65)">u</text>
      <text class="cls-5" transform="translate(174.3 178.8) rotate(-47.2)">r</text>
      <text class="cls-5" transform="matrix(0.58, -0.82, 0.82, 0.58, 183.47, 168.75)">e</text>
      <text class="cls-4" transform="matrix(0.5, -0.87, 0.87, 0.5, 190.77, 158.06)"> </text>
      <text class="cls-1" transform="translate(130.6 82)"> </text>
      <text class="cls-1" transform="translate(51.8 147)"> </text>
      <rect class="cls-6" x="10.7" y="103.2" width="36.7" height="2.75" rx="1.1" ry="1.1"/>
      <rect class="cls-6" x="160.6" y="103.2" width="43.9" height="2.75" rx="1.1" ry="1.1"/>
      <polygon class="cls-6" points="208.5 104.5 187.9 98.5 190.7 104.5 187.9 110.5 208.5 104.5"/>
      <rect class="cls-6" x="2.6" y="98.8" width="11.9" height="2.75" rx="1.1" ry="1.1" transform="translate(83.4 33) rotate(53)"/>
      <rect class="cls-6" x="2.5" y="107.5" width="11.9" height="2.75" rx="1.1" ry="1.1" transform="translate(-83.5 50.1) rotate(-53)"/>
      <rect class="cls-6" x="9.3" y="98.8" width="11.9" height="2.75" rx="1.1" ry="1.1" transform="translate(86.1 27.7) rotate(53)"/>
      <rect class="cls-6" x="9.2" y="107.5" width="11.9" height="2.75" rx="1.1" ry="1.1" transform="translate(-80.9 55.4) rotate(-53)"/>
      <rect class="cls-6" x="16.3" y="98.8" width="11.9" height="2.75" rx="1.1" ry="1.1" transform="translate(88.8 22.1) rotate(53)"/>
      <rect class="cls-6" x="16.2" y="107.5" width="11.9" height="2.75" rx="1.1" ry="1.1" transform="translate(-78.1 61) rotate(-53)"/>
      <rect class="cls-6" x="23.2" y="98.8" width="11.9" height="2.75" rx="1.1" ry="1.1" transform="translate(91.6 16.6) rotate(53)"/>
      <rect class="cls-6" x="23.1" y="107.5" width="11.9" height="2.75" rx="1.1" ry="1.1" transform="translate(-75.4 66.5) rotate(-53)"/>
      <path class="cls-6" d="M53,61.3,82.8,44.5a2.4,2.4,0,0,1,2.3,0l31,17.6a2.3,2.3,0,0,1,1.2,2v35a2.4,2.4,0,0,1-1.2,2L99,110.8a2.3,2.3,0,0,0-1.1,2v26.5a2.4,2.4,0,0,0,1.2,2l22.7,12.8a2.4,2.4,0,0,0,2.3,0l22.3-12.7a2.3,2.3,0,0,0,1.2-2V112.5a2.4,2.4,0,0,0-1.2-2l-16.8-9.7a2.2,2.2,0,0,1-1.2-2v-4a2.3,2.3,0,0,1,3.5-1.9l22.3,13.2a2.4,2.4,0,0,1,1.2,2v35.8a2.4,2.4,0,0,1-1.2,2l-30,17.1a2.4,2.4,0,0,1-2.3,0L91.4,145.8a2.4,2.4,0,0,1-1.2-2.1V108.3a2.3,2.3,0,0,1,1.2-2l16.7-10.1a2.2,2.2,0,0,0,1.1-2V68.3a2.2,2.2,0,0,0-1.2-2L85.5,53.2a2.4,2.4,0,0,0-2.3,0L61.4,65.3a2.4,2.4,0,0,0-1.2,2l-.3,27.2A2.5,2.5,0,0,0,61,96.6l16.9,9.9a2.4,2.4,0,0,1,1.2,2v3.8a2.3,2.3,0,0,1-3.5,2L53.2,101a2.2,2.2,0,0,1-1.1-2l-.3-35.6A2.6,2.6,0,0,1,53,61.3Z"/>
      <path class="cls-6" d="M83,65.7,71.7,72.2a3.7,3.7,0,0,0-1.9,3.2V88.5a3.7,3.7,0,0,0,1.9,3.3L83,98.3a3.5,3.5,0,0,0,3.7,0L98,91.8a3.7,3.7,0,0,0,1.9-3.3V75.4A3.7,3.7,0,0,0,98,72.2L86.7,65.7A3.5,3.5,0,0,0,83,65.7Z"/>
      <path class="cls-6" d="M120.7,109.3l-11.3,6.6a3.6,3.6,0,0,0-1.9,3.2v13.1a3.6,3.6,0,0,0,1.9,3.2l11.3,6.6a4.2,4.2,0,0,0,3.8,0l11.3-6.6a3.6,3.6,0,0,0,1.9-3.2V119.1a3.6,3.6,0,0,0-1.9-3.2l-11.3-6.6A4.2,4.2,0,0,0,120.7,109.3Z"/>
    </g>
  </g>
</svg>
